# xmcd
# 
# Track frame offsets:
#     150
#     20888
#     45412
#     68508
#     86771
#     102868
#     120623
#     136619
#     161817
#     194563
# 
# Disc length: 2970
# 
# Revision: 1
# Processed by: cddbd v1.5.2PL0 Copyright (c) Steve Scherf et al.
# Submitted via: fre:ac v1.0.31
# 
DISCID=820b980a
DTITLE=Joe Bonamassa - An Acoustic Evening At The Vienna Opera House  Disc 2
DYEAR=2013
DGENRE=Blues
TTITLE0=High Water Everywhere
TTITLE1=Jockey Full Of Bourbon
TTITLE2=Richmond
TTITLE3=Stones In My Passway
TTITLE4=Ball Peen Hammer
TTITLE5=Black Lung Heartache
TTITLE6=Mountain Time
TTITLE7=Woke Up Dreaming
TTITLE8=Sloe Gin
TTITLE9=Seagull
EXTD=
EXTT0=
EXTT1=
EXTT2=
EXTT3=
EXTT4=
EXTT5=
EXTT6=
EXTT7=
EXTT8=
EXTT9=
PLAYORDER=
